<svg viewBox="0 0 780 580" xmlns="http://www.w3.org/2000/svg" role="img">
  <title>Claude Workspace Architecture</title>
  <desc>Repository structure: 18 skills, 8 agents, 12 commands, 5 rules, 10 hooks</desc>
  <style>
    text { font-family: system-ui, -apple-system, sans-serif; }
    .title { font-size: 16px; font-weight: 700; fill: #1a1a1a; }
    .subtitle { font-size: 11px; fill: #666; }
    .label { font-size: 11px; font-weight: 600; fill: white; }
    .item { font-size: 9.5px; fill: #1a1a1a; }
    .count { font-size: 9px; fill: #888; }
    .connector { stroke: #ddd; stroke-width: 1.5; fill: none; }
    @media (prefers-color-scheme: dark) {
      .title { fill: #f0f0f0; }
      .subtitle { fill: #aaa; }
      .item { fill: #e0e0e0; }
      .count { fill: #999; }
      .connector { stroke: #444; }
      .bg-box { fill: #1e1e1e; stroke: #333; }
    }
  </style>

  <!-- Title -->
  <text x="390" y="28" text-anchor="middle" class="title">claude-workspace / Frontend Engineering</text>
  <text x="390" y="44" text-anchor="middle" class="subtitle">Production-grade Claude Code config — 18 skills, 8 agents, 12 commands, 5 rules, 10 hooks</text>

  <!-- CLAUDE.md (center top) -->
  <rect x="300" y="60" width="180" height="36" rx="8" fill="#2563eb"/>
  <text x="390" y="82" text-anchor="middle" class="label">CLAUDE.md</text>
  <text x="390" y="110" text-anchor="middle" class="count">Project memory — stack, rules, skill map (~60 lines)</text>

  <!-- settings.json -->
  <rect x="30" y="130" width="150" height="32" rx="6" fill="#7c3aed"/>
  <text x="105" y="150" text-anchor="middle" class="label">settings.json</text>
  <text x="105" y="174" text-anchor="middle" class="count">Permissions + 10 hooks</text>

  <!-- .mcp.json -->
  <rect x="600" y="130" width="150" height="32" rx="6" fill="#7c3aed"/>
  <text x="675" y="150" text-anchor="middle" class="label">.mcp.json</text>
  <text x="675" y="174" text-anchor="middle" class="count">GitHub + Filesystem MCPs</text>

  <!-- Connectors from CLAUDE.md -->
  <line x1="330" y1="96" x2="180" y2="130" class="connector"/>
  <line x1="450" y1="96" x2="600" y2="130" class="connector"/>

  <!-- Agents Box -->
  <rect x="15" y="200" width="155" height="195" rx="8" fill="#f8f9fa" stroke="#e0e0e0" class="bg-box"/>
  <rect x="15" y="200" width="155" height="28" rx="8" fill="#059669"/>
  <rect x="15" y="216" width="155" height="12" fill="#059669"/>
  <text x="92" y="219" text-anchor="middle" class="label">Agents (8)</text>
  <text x="27" y="245" class="item">code-reviewer</text>
  <text x="27" y="261" class="item">performance-auditor</text>
  <text x="27" y="277" class="item">accessibility-auditor</text>
  <text x="27" y="293" class="item">refactor-planner</text>
  <text x="27" y="309" class="item">doc-generator</text>
  <text x="27" y="325" class="item">architecture-reviewer</text>
  <text x="27" y="341" class="item">test-writer</text>
  <text x="27" y="357" class="item">orchestrator</text>
  <text x="27" y="383" class="count">Auto-invoked specialists</text>

  <!-- Commands Box -->
  <rect x="185" y="200" width="145" height="195" rx="8" fill="#f8f9fa" stroke="#e0e0e0" class="bg-box"/>
  <rect x="185" y="200" width="145" height="28" rx="8" fill="#d97706"/>
  <rect x="185" y="216" width="145" height="12" fill="#d97706"/>
  <text x="257" y="219" text-anchor="middle" class="label">Commands (12)</text>
  <text x="197" y="245" class="item">/code-quality</text>
  <text x="197" y="261" class="item">/component-gen</text>
  <text x="197" y="277" class="item">/pr-review  /ticket</text>
  <text x="197" y="293" class="item">/migrate  /onboard</text>
  <text x="197" y="309" class="item">/tdd  /build-fix</text>
  <text x="197" y="325" class="item">/e2e  /lighthouse</text>
  <text x="197" y="341" class="item">/perf-audit</text>
  <text x="197" y="357" class="item">/deploy</text>
  <text x="197" y="383" class="count">Slash command workflows</text>

  <!-- Rules Box -->
  <rect x="345" y="200" width="145" height="195" rx="8" fill="#f8f9fa" stroke="#e0e0e0" class="bg-box"/>
  <rect x="345" y="200" width="145" height="28" rx="8" fill="#dc2626"/>
  <rect x="345" y="216" width="145" height="12" fill="#dc2626"/>
  <text x="417" y="219" text-anchor="middle" class="label">Rules (5)</text>
  <text x="357" y="245" class="item">typescript.md</text>
  <text x="357" y="261" class="item">styling.md</text>
  <text x="357" y="277" class="item">testing.md</text>
  <text x="357" y="293" class="item">documentation.md</text>
  <text x="357" y="309" class="item">env-config.md</text>
  <text x="357" y="383" class="count">Path-scoped, lazy-loaded</text>

  <!-- Skills Box -->
  <rect x="505" y="200" width="260" height="195" rx="8" fill="#f8f9fa" stroke="#e0e0e0" class="bg-box"/>
  <rect x="505" y="200" width="260" height="28" rx="8" fill="#2563eb"/>
  <rect x="505" y="216" width="260" height="12" fill="#2563eb"/>
  <text x="635" y="219" text-anchor="middle" class="label">Skills (18)</text>
  <text x="517" y="245" class="item">react-patterns</text>
  <text x="517" y="259" class="item">state-management</text>
  <text x="517" y="273" class="item">testing-strategy</text>
  <text x="517" y="287" class="item">css-architecture</text>
  <text x="517" y="301" class="item">performance-optimization</text>
  <text x="517" y="315" class="item">accessibility</text>
  <text x="517" y="329" class="item">systematic-debugging</text>
  <text x="517" y="343" class="item">frontend-design</text>
  <text x="517" y="357" class="item">design-intelligence</text>
  <text x="650" y="245" class="item">security-audit</text>
  <text x="650" y="259" class="item">seo-fundamentals</text>
  <text x="650" y="273" class="item">structured-data</text>
  <text x="650" y="287" class="item">core-web-vitals</text>
  <text x="650" y="301" class="item">api-layer</text>
  <text x="650" y="315" class="item">error-handling</text>
  <text x="650" y="329" class="item">auth-patterns</text>
  <text x="650" y="343" class="item">monorepo-patterns</text>
  <text x="650" y="357" class="item">i18n</text>
  <text x="635" y="383" text-anchor="middle" class="count">Domain-specific knowledge bases</text>

  <!-- Hooks section -->
  <rect x="80" y="430" width="620" height="130" rx="8" fill="#f8f9fa" stroke="#e0e0e0" class="bg-box"/>
  <rect x="80" y="430" width="620" height="28" rx="8" fill="#7c3aed"/>
  <rect x="80" y="446" width="620" height="12" fill="#7c3aed"/>
  <text x="390" y="449" text-anchor="middle" class="label">Hooks — 10 Deterministic Quality Gates</text>

  <text x="105" y="478" class="item" font-weight="600">PreToolUse:</text>
  <text x="195" y="478" class="item">Branch guard (block main edits) + File protection (.env, secrets)</text>

  <text x="105" y="498" class="item" font-weight="600">PostToolUse:</text>
  <text x="195" y="498" class="item">Prettier auto-format + TypeScript check + Test runner</text>
  <text x="195" y="514" class="item">Dep installer + Auto-commit + UI screenshot capture</text>

  <text x="105" y="534" class="item" font-weight="600">Stop:</text>
  <text x="195" y="534" class="item">macOS notification + Vercel preview deploy</text>

</svg>